<?xml version="1.0" encoding="utf-8"?>
<!-- Generator: Adobe Illustrator 27.5.0, SVG Export Plug-In . SVG Version: 6.00 Build 0)  -->
<svg version="1.1" xmlns="http://www.w3.org/2000/svg" xmlns:xlink="http://www.w3.org/1999/xlink" x="0px" y="0px"
	 viewBox="0 0 500 500" style="enable-background:new 0 0 500 500;" xml:space="preserve">
<g id="BACKGROUND">
	<rect style="fill:#DF7F89;" width="500" height="500"/>
	<path style="fill:#EFDEB3;" d="M0,355.702V164.787c4.588,2.428,7.717,7.244,7.717,12.796c0,0.817-0.076,1.615-0.206,2.395
		c0.52,0.18,1.034,0.374,1.545,0.574c4.293-5.18,13.232-5.322,20.379-0.178c7.386,5.317,10.045,14.252,5.939,19.956
		c-0.721,1.001-1.609,1.826-2.612,2.494c2.586,5.569,4.037,11.771,4.037,18.315c0,0.309-0.015,0.615-0.021,0.923
		c0.414-0.037,0.831-0.063,1.254-0.063c7.359,0,13.386,5.66,13.99,12.863c1.529-0.344,3.088-0.611,4.674-0.79
		c1.508-6.383,7.229-11.139,14.073-11.139c7.994,0,14.474,6.48,14.474,14.474c0,1.074-0.125,2.117-0.347,3.124
		c4.055,2.569,7.656,5.785,10.657,9.509c2.208-0.858,4.601-1.347,7.112-1.347c5.431,0,10.347,2.201,13.907,5.759
		c4.224-3.38,9.579-5.406,15.41-5.406c2.54,0,4.99,0.385,7.296,1.097c0.335-1.58,0.773-3.122,1.305-4.62
		c-6.031-1.12-10.6-6.399-10.6-12.754c0-7.17,5.812-12.982,12.982-12.982c5.235,0,9.734,3.105,11.788,7.568
		c5.791-3.864,12.746-6.12,20.23-6.12c18.7,0,34.106,14.066,36.238,32.192c1.237-0.127,2.492-0.192,3.762-0.192
		c15.395,0,28.554,9.536,33.918,23.019c5.298-1.696,10.942-2.62,16.803-2.62c9.125,0,17.724,2.232,25.303,6.16
		c3.787-8.904,12.614-15.147,22.9-15.147c10.565,0,19.585,6.589,23.191,15.879c2.953-3.425,6.455-6.362,10.373-8.672
		c-1.393-3.105-2.175-6.545-2.175-10.169c0-13.738,11.137-24.875,24.875-24.875c3.177,0,6.213,0.602,9.006,1.688
		c0.186-0.23,0.369-0.463,0.559-0.691c-2.901-2.381-4.753-5.993-4.753-10.039c0-7.17,5.812-12.982,12.982-12.982
		c1.953,0,3.798,0.444,5.46,1.216c2.633-6.878,9.278-11.771,17.082-11.771c8.655,0,15.889,6.014,17.796,14.086
		c2.005,0.226,3.976,0.564,5.91,0.999c0.764-9.109,8.386-16.267,17.692-16.267c0.535,0,1.063,0.034,1.586,0.08
		c-0.008-0.389-0.027-0.776-0.027-1.168c0-24.1,15.479-44.581,37.037-52.052c-0.165-0.986-0.26-1.996-0.26-3.029
		c0-7.021,3.957-13.111,9.759-16.182v225H0z"/>
</g>
<g id="OBJECTS">
	<g>
		<polygon style="fill:#B15668;" points="493.135,246.594 472.789,236.421 450.912,247.36 450.912,249.588 439.42,251.219 
			439.42,266.001 427.609,266.001 427.609,281.328 410.718,281.328 410.718,290.408 402.288,290.408 402.288,255.163 
			397.071,255.163 397.071,250.676 378.256,250.676 378.256,255.163 370.548,255.163 370.548,237.766 360.789,237.766 
			360.789,231.898 350.559,230.854 350.559,222.796 337.803,224.292 337.803,229.552 322.904,228.032 322.904,237.766 
			313.144,237.766 313.144,252.678 301.059,252.678 301.059,290.408 286.107,290.408 286.107,276.703 263.538,276.703 
			263.538,266.141 258.141,266.774 258.141,260.906 245.384,262.401 245.384,268.27 239.987,268.903 239.987,276.703 
			228.703,276.703 228.703,284.988 184.546,284.988 184.546,290.408 183.263,290.408 183.263,296.469 181.302,296.469 
			181.302,298.757 177.371,298.757 177.371,289.885 172.395,289.885 172.395,286.893 167.178,286.36 167.178,282.251 
			160.673,283.014 160.673,285.696 153.076,284.921 153.076,289.885 148.098,289.885 148.098,297.489 143,297.489 143,345.223 
			183.263,345.223 183.263,346.283 500,346.283 500,245.789 		"/>
		<path style="fill:#8A2E52;" d="M497,299.48v-6.7l-16.534-7.332l-16.534,7.332v2.07h-1.531v5.402h-4.331v-1.393H457v-9.93l-23-10.2
			l-23,10.2v2.94h-5.155v-5.044h-12.433v-4.75l-5.946-0.385v-3.573l-14.055-0.911v3.573l-5.946-0.385v6.431h-1.797v-7.652l-23-10.2
			l-16.543,7.336v-4.114h-13.315v-9.08h-10.754v-5.927l-16.415,0.926v-3.203L271.585,254v4.906l-11.272,0.636v3.573h-10.752v10.594
			h-8.493v-2.732h-20.73v2.732h-5.748v21.46h-9.289v-5.529h-18.61v-9.332h-13.014v-9.001l-31.623-2.481v11.482h-11.352v-8.113
			h-12.984v-3.496l-14.055-0.911v4.406h-4.585v7.819H88.798v-6.306h-3.588v-4.398l-12.878-5.711l-12.878,5.711v4.398h-0.867v14.151
			L40,279.616l-23,10.2v13.896l-2.25,0.146v-1.822L7.582,302.5v1.822l-3.032,0.196v2.422H0.09V366h500v-66.52H497z"/>
		<path style="fill:#3E1337;" d="M499.429,348.404v-1.827l-4.509-2l-4.509,2v0.564h-0.418v1.473h-1.181v-0.38h-0.292v-2.708
			l-6.273-2.782l-6.273,2.782v0.802h-1.406v-1.376h-3.391v-1.295l-1.622-0.105v-0.975l-3.833-0.248v0.974l-1.622-0.105v1.754h-0.49
			v-2.087l-6.273-2.782l-4.512,2.001v-1.122h-3.631v-2.476h-2.933v-1.616l-4.477,0.253v-0.873L437.953,336v1.338l-3.074,0.173v0.974
			h-2.932v2.889h-2.316v-0.745h-1.06l-44.743-33.23l-36.895,27.401v-33.014H344.6v-32.72h0.451v-5.19h-2.257v-2.319h0.827
			L331.136,222l-12.486,39.557h1.88v2.319h-3.874v2.257h-0.038v27.88l-17.977-10.544l-16.924,9.926v-27.262h-0.038v-2.257h-3.498
			v-2.319h1.354L267.049,222l-12.486,39.557h1.354v2.319h-2.633v5.19h0.451v32.72h-2.332v30.946
			c-2.17-4.402-4.449-9.499-6.751-15.34c-0.321-0.815-0.643-1.645-0.964-2.486c-0.236-0.62-0.472-1.241-0.709-1.877
			c-0.048-0.128-0.095-0.253-0.143-0.382c-0.303-0.819-0.605-1.656-0.908-2.501c-0.143-0.401-0.286-0.802-0.429-1.211
			c-0.008-0.024-0.017-0.049-0.025-0.073c-0.073-0.21-0.147-0.428-0.22-0.641h2.654v-8.004h2.52v-3.557h-8.935
			c-2.892-9.582-5.67-20.507-8.152-32.904c-0.096-0.586-0.207-1.142-0.329-1.672c-0.4-2.039-0.79-4.123-1.172-6.241h4.724v-5.256
			h1.655v-2.336h-7.688c-1.436-8.803-2.712-18.256-3.786-28.374c-0.036-0.354-0.071-0.699-0.107-1.035
			c-0.161-1.539-0.318-3.087-0.469-4.657h2.133v-5.256h1.025v-2.336h-3.835c-0.693-8.326-1.247-17.071-1.641-26.251h0.043
			c-0.062-0.979-0.121-1.969-0.175-3.124c-0.056-1.446-0.102-2.916-0.15-4.384h4.733v-5.256h1.025v-2.336h-5.966
			c-0.092-4.106-0.152-8.29-0.179-12.558h0.006c-0.002,0-0.005-0.064-0.007-0.157c-0.006-1.033-0.012-2.068-0.014-3.11h5.135v-5.256
			h1.025v-2.336h-7.354v-10.49h1.784v-5.256h0.678v-2.336h-3.13v-7.976h-2.001V99.763h-2.668V70.417h-3.335v29.346h-2.668v16.007
			h-2.001v7.976h-3.352v2.336h0.678v5.256h1.784v10.49h-7.354v2.336h1.025v5.256h5.135c-0.002,1.047-0.008,2.086-0.014,3.124
			c-0.002,0.087-0.004,0.144-0.007,0.144h0.006c-0.027,4.268-0.087,8.452-0.179,12.558h-5.966v2.336h1.025v5.256h4.733
			c-0.048,1.477-0.095,2.957-0.151,4.413c-0.054,1.143-0.112,2.125-0.174,3.096h0.043c-0.394,9.18-0.948,17.925-1.641,26.251h-3.834
			v2.336h1.025v5.256h2.133c-0.153,1.589-0.312,3.156-0.475,4.713c-0.032,0.307-0.065,0.623-0.098,0.946
			c-1.075,10.131-2.353,19.594-3.79,28.407h-7.688v2.336h1.655v5.256h4.723c-0.383,2.119-0.773,4.204-1.173,6.243
			c-0.122,0.525-0.231,1.077-0.327,1.657c-2.483,12.401-5.261,23.33-8.154,32.915h-8.935v3.557h2.52v8.004h2.654
			c-0.071,0.205-0.141,0.414-0.212,0.617c-0.014,0.039-0.028,0.08-0.041,0.119c-0.138,0.395-0.276,0.782-0.415,1.17
			c-0.306,0.855-0.612,1.702-0.918,2.53c-0.043,0.115-0.085,0.227-0.128,0.342c-0.242,0.651-0.484,1.287-0.726,1.921
			c-0.316,0.824-0.631,1.639-0.946,2.438c-4.119,10.455-8.164,18.512-11.639,24.518v-0.504h-0.979v-1.199l-1.158-0.514V306.03h0.974
			v-4.383h1.786v-6.331h-2.76v-11.851h2.76v-6.331h-2.76v-6.169H68.818v6.169h-2.76v6.331h2.76v11.851h-2.76v6.331h1.786v4.383
			h0.974v35.345h-0.521v-0.745h-5.654v0.745h-1.568v5.853h-2.533v-1.508h-5.075v-2.545h-3.549v-2.455l-8.625-0.677v3.131h-3.096
			v-2.213h-3.541v-0.953l-3.833-0.249v1.202h-1.25v2.133h-2.804v-1.72H25.79v-1.199l-3.512-1.557l-3.512,1.557v1.199h-0.236v3.859
			l-5.07-2.248l-6.273,2.782v3.79l-0.614,0.04V349.1l-1.955,0.127v0.497l-0.827,0.053v0.661H2.575v3.303H0V500h500V354h0.272v-5.596
			H499.429z M332.302,274.257c0-1.994,1.616-3.611,3.611-3.611c1.994,0,3.611,1.617,3.611,3.611v23.243h-7.221V274.257z
			 M321.696,274.257c0-1.994,1.617-3.611,3.611-3.611c1.994,0,3.611,1.617,3.611,3.611v23.243h-7.221V274.257z M269.418,274.257
			c0-1.994,1.616-3.611,3.611-3.611c1.994,0,3.611,1.617,3.611,3.611v23.243h-7.221V274.257z M258.812,274.257
			c0-1.994,1.616-3.611,3.61-3.611c1.994,0,3.611,1.617,3.611,3.611v23.243h-7.221V274.257z M208.634,231.153h4.446
			c0.282,4.988,0.844,10.893,1.553,17.102h-7.553C207.79,242.046,208.351,236.141,208.634,231.153z M205.07,264.09h0.005
			c0.007-0.065,0.014-0.12,0.021-0.185c0.366-2.666,0.725-5.367,1.067-8.058h9.389c0.342,2.693,0.701,5.395,1.068,8.063
			c0.007,0.063,0.013,0.116,0.02,0.18h0.005c1.973,14.337,4.147,27.602,4.979,32.573h-21.531
			C200.923,291.691,203.097,278.426,205.07,264.09z M129.078,346.577v0.564h-0.418v1.473h-1.181v-0.38h-0.292v-2.708l-6.273-2.782
			l-6.273,2.782v0.802h-1.406v-1.376h-3.391v-1.295l-1.622-0.105v-0.975l-3.833-0.248v0.974l-1.622-0.105v1.754h-0.49v-2.087
			l-4.239-1.88v-6.222c0-9.952,8.068-18.02,18.019-18.02c9.952,0,18.02,8.068,18.02,18.02v10.031l-0.491-0.218L129.078,346.577z
			 M230.16,342.084v-1.122h-3.631v-2.476h-2.933v-1.616l-4.477,0.253v-0.873L215.286,336v1.338l-3.074,0.173v0.974h-2.932v2.889
			h-2.316v-0.745h-5.654v0.745h-1.568v5.853h-2.533v-1.508h-5.075v-2.545h-3.549v-2.455l-4.17-0.327
			c5.39-8.972,15.214-14.977,26.442-14.977c11.702,0,21.881,6.52,27.103,16.126l-3.288-1.458L230.16,342.084z"/>
		<g>
			<path style="fill:#8A2E52;" d="M340.529,92.949c0-15.509-12.572-28.081-28.081-28.081c-15.509,0-28.081,12.572-28.081,28.081
				c0,9.403,4.627,17.721,11.723,22.817h-0.108c0,0,5.505,4.529,6.684,9.951c0.105,0.483,0.358,0.891,0.68,1.225h-0.859
				c-1.255,0-2.273,1.018-2.273,2.273c0,1.255,1.017,2.273,2.273,2.273h0.915l3.986,10.972h-0.075c-1.001,0-1.723,0.96-1.446,1.922
				l1.189,4.125c0.186,0.644,0.775,1.088,1.446,1.088h7.891c0.671,0,1.26-0.444,1.446-1.088l1.189-4.125
				c0.277-0.962-0.444-1.922-1.446-1.922h-0.074l3.985-10.972h0.263c1.255,0,2.273-1.017,2.273-2.273
				c0-1.255-1.018-2.273-2.273-2.273h-0.207c0.322-0.335,0.575-0.743,0.68-1.225c1.18-5.423,6.685-9.951,6.685-9.951h-0.108
				C335.902,110.67,340.529,102.352,340.529,92.949z M316.67,142.461h-8.444l-3.986-10.972h16.414L316.67,142.461z"/>
			<path style="fill:#B15668;" d="M437.581,123.75c0-7.652-6.203-13.856-13.856-13.856c-7.652,0-13.856,6.203-13.856,13.856
				c0,4.64,2.283,8.744,5.784,11.258h-0.053c0,0,2.716,2.234,3.298,4.91c0.052,0.238,0.177,0.439,0.336,0.605h-0.424
				c-0.619,0-1.122,0.502-1.122,1.122s0.502,1.121,1.122,1.121h0.451l1.967,5.414h-0.037c-0.494,0-0.85,0.473-0.713,0.948
				l0.587,2.035c0.092,0.318,0.383,0.537,0.714,0.537h3.893c0.331,0,0.622-0.219,0.713-0.537l0.587-2.035
				c0.137-0.475-0.219-0.948-0.713-0.948h-0.037l1.966-5.414h0.13c0.619,0,1.121-0.502,1.121-1.121s-0.502-1.122-1.121-1.122h-0.102
				c0.159-0.165,0.284-0.367,0.336-0.605c0.582-2.676,3.298-4.91,3.298-4.91h-0.053C435.298,132.493,437.581,128.389,437.581,123.75
				z M425.808,148.18h-4.166l-1.967-5.414h8.099L425.808,148.18z"/>
			<path style="fill:#B15668;" d="M80.205,125.951c0-7.652-6.203-13.856-13.856-13.856s-13.856,6.204-13.856,13.856
				c0,4.64,2.283,8.744,5.784,11.258h-0.053c0,0,2.716,2.234,3.298,4.91c0.052,0.238,0.177,0.439,0.336,0.605h-0.424
				c-0.619,0-1.121,0.502-1.121,1.121c0,0.62,0.502,1.122,1.121,1.122h0.451l1.967,5.414h-0.037c-0.494,0-0.85,0.473-0.714,0.948
				l0.587,2.035c0.092,0.318,0.383,0.537,0.714,0.537h3.893c0.331,0,0.622-0.219,0.714-0.537l0.587-2.035
				c0.137-0.475-0.219-0.948-0.713-0.948h-0.036l1.966-5.414h0.13c0.619,0,1.121-0.502,1.121-1.122c0-0.619-0.502-1.121-1.121-1.121
				H70.84c0.159-0.165,0.284-0.367,0.336-0.605c0.582-2.676,3.298-4.91,3.298-4.91h-0.053
				C77.922,134.695,80.205,130.591,80.205,125.951z M68.433,150.382h-4.166l-1.967-5.414h8.099L68.433,150.382z"/>
		</g>
	</g>
	<g>
		
			<text transform="matrix(1 0 0 1 184.0686 439.8259)" style="fill:#EFDEB3; font-family:'Quicksand-Regular'; font-size:46.6607px;">PARIS</text>
		<text transform="matrix(1 0 0 1 198.3718 391.9363)" style="fill:#B15668; font-family:'Pecita'; font-size:20.2825px;">Welcome to</text>
	</g>
</g>
<g id="DESIGNED_BY_FREEPIK">
	<g style="opacity:0.5;">
		<g>
			<g>
				<path style="fill:#DF7F89;" d="M179.552,473.165v-0.161c-0.218,0.249-0.433,0.452-0.644,0.608
					c-0.212,0.157-0.441,0.276-0.689,0.357c-0.247,0.082-0.517,0.122-0.81,0.122c-0.388,0-0.747-0.082-1.078-0.246
					c-0.33-0.164-0.616-0.399-0.857-0.704c-0.242-0.305-0.425-0.662-0.549-1.074c-0.124-0.412-0.187-0.857-0.187-1.335
					c0-1.013,0.247-1.804,0.742-2.369c0.495-0.565,1.146-0.848,1.953-0.848c0.467,0,0.861,0.081,1.181,0.24
					c0.321,0.16,0.633,0.408,0.938,0.739V466.1c0-0.333,0.066-0.583,0.199-0.754c0.132-0.17,0.321-0.255,0.567-0.255
					c0.245,0,0.434,0.078,0.567,0.234c0.133,0.157,0.199,0.386,0.199,0.691v7.147c0,0.309-0.071,0.54-0.214,0.694
					c-0.142,0.154-0.326,0.231-0.552,0.231c-0.221,0-0.405-0.08-0.549-0.24C179.624,473.689,179.552,473.461,179.552,473.165z
					 M176.364,470.784c0,0.439,0.068,0.813,0.205,1.122c0.137,0.309,0.324,0.541,0.561,0.697c0.238,0.157,0.497,0.236,0.778,0.236
					c0.285,0,0.545-0.074,0.781-0.223c0.235-0.148,0.423-0.376,0.564-0.682c0.141-0.307,0.21-0.691,0.21-1.149
					c0-0.432-0.07-0.803-0.21-1.114c-0.14-0.31-0.33-0.547-0.57-0.712c-0.24-0.164-0.502-0.245-0.786-0.245
					c-0.297,0-0.562,0.084-0.795,0.252c-0.234,0.168-0.415,0.409-0.543,0.724C176.428,470.004,176.364,470.368,176.364,470.784z"/>
				<path style="fill:#DF7F89;" d="M186.698,471.194h-3.169c0.004,0.367,0.078,0.692,0.223,0.973
					c0.144,0.281,0.336,0.493,0.576,0.635c0.24,0.143,0.504,0.213,0.793,0.213c0.194,0,0.371-0.022,0.531-0.067
					c0.16-0.046,0.315-0.117,0.466-0.214c0.15-0.097,0.289-0.201,0.415-0.312c0.126-0.111,0.29-0.262,0.493-0.452
					c0.083-0.071,0.202-0.107,0.357-0.107c0.166,0,0.3,0.046,0.403,0.137c0.103,0.092,0.155,0.219,0.155,0.386
					c0,0.146-0.058,0.317-0.172,0.513c-0.116,0.196-0.289,0.384-0.52,0.564c-0.232,0.18-0.522,0.329-0.873,0.448
					c-0.35,0.119-0.753,0.178-1.208,0.178c-1.04,0-1.85-0.297-2.428-0.891c-0.578-0.593-0.866-1.399-0.866-2.416
					c0-0.479,0.071-0.924,0.213-1.332c0.143-0.41,0.351-0.761,0.623-1.054c0.273-0.293,0.609-0.517,1.009-0.674
					c0.4-0.156,0.843-0.234,1.33-0.234c0.633,0,1.176,0.132,1.629,0.4c0.454,0.267,0.794,0.612,1.019,1.035
					c0.225,0.424,0.339,0.856,0.339,1.294c0,0.408-0.117,0.672-0.35,0.793C187.45,471.133,187.122,471.194,186.698,471.194z
					 M183.528,470.274h2.939c-0.039-0.554-0.19-0.969-0.448-1.244c-0.259-0.275-0.6-0.413-1.024-0.413
					c-0.404,0-0.735,0.139-0.994,0.418C183.741,469.314,183.584,469.728,183.528,470.274z"/>
				<path style="fill:#DF7F89;" d="M194.082,471.971c0,0.447-0.108,0.831-0.327,1.149c-0.217,0.319-0.539,0.56-0.965,0.725
					c-0.425,0.164-0.943,0.246-1.552,0.246c-0.582,0-1.08-0.089-1.496-0.267c-0.415-0.178-0.722-0.401-0.92-0.667
					c-0.198-0.268-0.297-0.535-0.297-0.805c0-0.178,0.063-0.33,0.19-0.456c0.126-0.126,0.287-0.19,0.481-0.19
					c0.17,0,0.3,0.042,0.391,0.125c0.091,0.083,0.178,0.2,0.261,0.35c0.166,0.29,0.366,0.504,0.597,0.648
					c0.231,0.142,0.547,0.214,0.947,0.214c0.324,0,0.59-0.073,0.798-0.217c0.208-0.145,0.311-0.31,0.311-0.496
					c0-0.285-0.107-0.492-0.324-0.622c-0.216-0.131-0.571-0.256-1.066-0.375c-0.558-0.138-1.012-0.284-1.362-0.436
					c-0.35-0.151-0.63-0.353-0.84-0.602c-0.21-0.25-0.315-0.557-0.315-0.92c0-0.324,0.097-0.631,0.291-0.92
					c0.194-0.288,0.48-0.519,0.859-0.691c0.377-0.173,0.833-0.259,1.367-0.259c0.419,0,0.797,0.043,1.131,0.131
					c0.335,0.086,0.614,0.204,0.837,0.35c0.224,0.146,0.394,0.308,0.51,0.486c0.117,0.178,0.175,0.352,0.175,0.523
					c0,0.185-0.062,0.338-0.186,0.457c-0.125,0.118-0.301,0.178-0.532,0.178c-0.166,0-0.308-0.048-0.424-0.143
					c-0.117-0.095-0.25-0.237-0.401-0.427c-0.123-0.158-0.266-0.285-0.433-0.38c-0.166-0.095-0.392-0.142-0.677-0.142
					c-0.293,0-0.536,0.062-0.73,0.187c-0.194,0.124-0.291,0.279-0.291,0.465c0,0.171,0.071,0.31,0.213,0.419
					c0.143,0.109,0.334,0.2,0.576,0.27c0.242,0.071,0.573,0.158,0.997,0.261c0.502,0.123,0.912,0.27,1.231,0.44
					c0.318,0.17,0.56,0.371,0.725,0.603C194,471.41,194.082,471.674,194.082,471.971z"/>
				<path style="fill:#DF7F89;" d="M195.738,466.748c-0.226,0-0.418-0.07-0.579-0.208c-0.16-0.138-0.24-0.334-0.24-0.588
					c0-0.23,0.082-0.418,0.246-0.567c0.164-0.149,0.355-0.223,0.573-0.223c0.21,0,0.396,0.067,0.558,0.202
					c0.162,0.135,0.244,0.33,0.244,0.588c0,0.25-0.08,0.444-0.238,0.585C196.143,466.677,195.955,466.748,195.738,466.748z
					 M196.539,468.422v4.683c0,0.325-0.077,0.571-0.232,0.737c-0.155,0.166-0.35,0.249-0.588,0.249
					c-0.238,0-0.431-0.085-0.579-0.255c-0.149-0.17-0.222-0.414-0.222-0.73v-4.636c0-0.32,0.074-0.561,0.222-0.724
					c0.148-0.162,0.341-0.243,0.579-0.243c0.238,0,0.433,0.081,0.588,0.243C196.462,467.907,196.539,468.133,196.539,468.422z"/>
				<path style="fill:#DF7F89;" d="M203.639,468.689v4.707c0,0.538-0.058,1.001-0.173,1.39c-0.114,0.387-0.298,0.708-0.552,0.961
					c-0.253,0.253-0.585,0.441-0.994,0.563c-0.41,0.123-0.919,0.184-1.529,0.184c-0.558,0-1.056-0.078-1.496-0.234
					c-0.439-0.157-0.777-0.358-1.015-0.606c-0.237-0.247-0.357-0.502-0.357-0.763c0-0.198,0.068-0.36,0.202-0.483
					c0.134-0.125,0.297-0.187,0.487-0.187c0.237,0,0.445,0.105,0.623,0.314c0.087,0.107,0.177,0.215,0.27,0.324
					c0.093,0.109,0.197,0.202,0.309,0.28c0.113,0.076,0.249,0.134,0.406,0.172c0.158,0.037,0.341,0.056,0.546,0.056
					c0.42,0,0.745-0.058,0.977-0.175c0.232-0.117,0.394-0.28,0.487-0.49c0.093-0.209,0.147-0.433,0.163-0.673
					c0.016-0.24,0.027-0.624,0.035-1.155c-0.25,0.349-0.537,0.615-0.864,0.797c-0.326,0.182-0.715,0.273-1.166,0.273
					c-0.542,0-1.016-0.139-1.422-0.416c-0.405-0.277-0.717-0.665-0.934-1.163c-0.218-0.499-0.326-1.074-0.326-1.727
					c0-0.486,0.066-0.927,0.198-1.318c0.133-0.393,0.322-0.723,0.567-0.992c0.245-0.269,0.528-0.472,0.849-0.608
					c0.321-0.136,0.673-0.204,1.057-0.204c0.459,0,0.857,0.089,1.193,0.264c0.336,0.177,0.649,0.453,0.938,0.829v-0.22
					c0-0.281,0.069-0.498,0.208-0.653c0.139-0.154,0.317-0.231,0.535-0.231c0.313,0,0.52,0.103,0.623,0.306
					C203.587,468.011,203.639,468.305,203.639,468.689z M198.943,470.743c0,0.657,0.143,1.154,0.43,1.49
					c0.287,0.337,0.658,0.505,1.113,0.505c0.269,0,0.523-0.073,0.762-0.217c0.24-0.145,0.435-0.362,0.585-0.653
					c0.15-0.291,0.226-0.644,0.226-1.06c0-0.66-0.145-1.176-0.436-1.543c-0.291-0.368-0.674-0.552-1.149-0.552
					c-0.463,0-0.834,0.176-1.113,0.529C199.082,469.593,198.943,470.094,198.943,470.743z"/>
				<path style="fill:#DF7F89;" d="M206.214,468.398v0.196c0.285-0.376,0.596-0.652,0.935-0.828
					c0.338-0.176,0.727-0.264,1.166-0.264c0.427,0,0.809,0.093,1.146,0.28c0.336,0.186,0.588,0.449,0.753,0.789
					c0.108,0.198,0.176,0.413,0.208,0.641c0.032,0.23,0.048,0.522,0.048,0.879v3.015c0,0.325-0.075,0.571-0.223,0.737
					c-0.148,0.166-0.341,0.249-0.579,0.249c-0.242,0-0.437-0.085-0.588-0.255c-0.151-0.17-0.225-0.414-0.225-0.73v-2.701
					c0-0.534-0.074-0.943-0.223-1.226c-0.149-0.283-0.444-0.425-0.888-0.425c-0.288,0-0.552,0.086-0.789,0.258
					c-0.237,0.173-0.412,0.41-0.522,0.71c-0.079,0.242-0.119,0.692-0.119,1.353v2.03c0,0.328-0.077,0.576-0.228,0.74
					c-0.152,0.164-0.349,0.246-0.59,0.246c-0.234,0-0.426-0.085-0.576-0.255c-0.15-0.17-0.225-0.414-0.225-0.73v-4.683
					c0-0.309,0.067-0.54,0.202-0.692c0.135-0.152,0.319-0.228,0.552-0.228c0.143,0,0.272,0.034,0.387,0.101
					c0.114,0.068,0.207,0.169,0.276,0.302C206.179,468.039,206.214,468.204,206.214,468.398z"/>
				<path style="fill:#DF7F89;" d="M216.073,471.194h-3.17c0.004,0.367,0.078,0.692,0.223,0.973
					c0.144,0.281,0.336,0.493,0.576,0.635c0.239,0.143,0.503,0.213,0.792,0.213c0.194,0,0.371-0.022,0.532-0.067
					c0.16-0.046,0.315-0.117,0.466-0.214c0.15-0.097,0.288-0.201,0.416-0.312c0.126-0.111,0.29-0.262,0.492-0.452
					c0.083-0.071,0.202-0.107,0.356-0.107c0.166,0,0.301,0.046,0.404,0.137c0.103,0.092,0.154,0.219,0.154,0.386
					c0,0.146-0.057,0.317-0.172,0.513c-0.115,0.196-0.288,0.384-0.52,0.564c-0.232,0.18-0.522,0.329-0.872,0.448
					c-0.35,0.119-0.753,0.178-1.208,0.178c-1.041,0-1.85-0.297-2.428-0.891c-0.577-0.593-0.866-1.399-0.866-2.416
					c0-0.479,0.071-0.924,0.214-1.332c0.143-0.41,0.351-0.761,0.624-1.054c0.273-0.293,0.609-0.517,1.009-0.674
					c0.399-0.156,0.843-0.234,1.33-0.234c0.633,0,1.176,0.132,1.629,0.4c0.453,0.267,0.793,0.612,1.019,1.035
					c0.225,0.424,0.338,0.856,0.338,1.294c0,0.408-0.117,0.672-0.35,0.793C216.825,471.133,216.497,471.194,216.073,471.194z
					 M212.903,470.274h2.938c-0.039-0.554-0.189-0.969-0.448-1.244c-0.259-0.275-0.6-0.413-1.024-0.413
					c-0.404,0-0.736,0.139-0.995,0.418C213.115,469.314,212.959,469.728,212.903,470.274z"/>
				<path style="fill:#DF7F89;" d="M222.679,473.165v-0.161c-0.218,0.249-0.432,0.452-0.644,0.608
					c-0.212,0.157-0.441,0.276-0.688,0.357c-0.247,0.082-0.517,0.122-0.81,0.122c-0.389,0-0.747-0.082-1.078-0.246
					c-0.331-0.164-0.616-0.399-0.858-0.704c-0.242-0.305-0.424-0.662-0.549-1.074c-0.125-0.412-0.187-0.857-0.187-1.335
					c0-1.013,0.247-1.804,0.742-2.369c0.495-0.565,1.146-0.848,1.953-0.848c0.467,0,0.861,0.081,1.181,0.24
					c0.32,0.16,0.633,0.408,0.938,0.739V466.1c0-0.333,0.066-0.583,0.199-0.754c0.132-0.17,0.322-0.255,0.567-0.255
					c0.245,0,0.434,0.078,0.567,0.234c0.133,0.157,0.199,0.386,0.199,0.691v7.147c0,0.309-0.071,0.54-0.214,0.694
					c-0.143,0.154-0.326,0.231-0.552,0.231c-0.222,0-0.405-0.08-0.549-0.24C222.751,473.689,222.679,473.461,222.679,473.165z
					 M219.492,470.784c0,0.439,0.068,0.813,0.204,1.122c0.137,0.309,0.324,0.541,0.562,0.697c0.237,0.157,0.496,0.236,0.777,0.236
					c0.285,0,0.546-0.074,0.781-0.223c0.236-0.148,0.424-0.376,0.564-0.682c0.141-0.307,0.211-0.691,0.211-1.149
					c0-0.432-0.07-0.803-0.211-1.114c-0.14-0.31-0.33-0.547-0.57-0.712c-0.24-0.164-0.502-0.245-0.787-0.245
					c-0.296,0-0.562,0.084-0.795,0.252c-0.233,0.168-0.414,0.409-0.543,0.724C219.556,470.004,219.492,470.368,219.492,470.784z"/>
				<path style="fill:#DF7F89;" d="M229.303,466.017v2.475c0.304-0.316,0.615-0.559,0.932-0.727
					c0.316-0.168,0.709-0.252,1.175-0.252c0.538,0,1.01,0.128,1.416,0.382c0.405,0.256,0.72,0.626,0.944,1.111
					c0.223,0.484,0.336,1.06,0.336,1.725c0,0.491-0.063,0.94-0.187,1.35c-0.125,0.409-0.306,0.765-0.543,1.065
					c-0.238,0.301-0.525,0.534-0.864,0.698c-0.339,0.164-0.712,0.246-1.119,0.246c-0.25,0-0.484-0.029-0.703-0.089
					c-0.22-0.059-0.407-0.137-0.561-0.234c-0.154-0.096-0.286-0.197-0.395-0.3c-0.109-0.102-0.253-0.258-0.431-0.463v0.161
					c0,0.304-0.073,0.535-0.22,0.692c-0.146,0.156-0.332,0.234-0.558,0.234c-0.23,0-0.413-0.077-0.549-0.234
					c-0.137-0.157-0.205-0.388-0.205-0.692v-7.077c0-0.328,0.066-0.577,0.198-0.745c0.133-0.168,0.318-0.252,0.555-0.252
					c0.25,0,0.441,0.08,0.576,0.24C229.235,465.492,229.303,465.72,229.303,466.017z M229.38,470.832
					c0,0.645,0.147,1.14,0.442,1.486c0.295,0.347,0.682,0.521,1.161,0.521c0.407,0,0.759-0.177,1.053-0.532
					c0.295-0.355,0.442-0.862,0.442-1.523c0-0.427-0.061-0.796-0.184-1.104c-0.123-0.309-0.297-0.548-0.522-0.715
					c-0.226-0.168-0.489-0.252-0.79-0.252c-0.309,0-0.584,0.084-0.825,0.252c-0.242,0.168-0.431,0.411-0.57,0.73
					C229.449,470.013,229.38,470.392,229.38,470.832z"/>
				<path style="fill:#DF7F89;" d="M236.207,474.293l0.148-0.363l-1.995-5.022c-0.122-0.288-0.184-0.499-0.184-0.629
					c0-0.139,0.036-0.267,0.107-0.385c0.071-0.119,0.169-0.214,0.294-0.285c0.125-0.072,0.255-0.107,0.389-0.107
					c0.233,0,0.409,0.074,0.529,0.223c0.119,0.148,0.223,0.361,0.314,0.638l1.372,3.989l1.3-3.71c0.103-0.3,0.196-0.536,0.279-0.706
					c0.083-0.17,0.171-0.285,0.264-0.344c0.093-0.06,0.225-0.09,0.395-0.09c0.123,0,0.24,0.032,0.353,0.098
					c0.113,0.065,0.2,0.153,0.261,0.264c0.061,0.111,0.092,0.227,0.092,0.35c-0.016,0.075-0.041,0.182-0.077,0.321
					c-0.036,0.138-0.079,0.28-0.13,0.421l-2.113,5.533c-0.183,0.487-0.361,0.868-0.535,1.145c-0.174,0.277-0.404,0.491-0.692,0.638
					c-0.287,0.149-0.674,0.223-1.161,0.223c-0.475,0-0.831-0.051-1.068-0.154c-0.238-0.104-0.356-0.292-0.356-0.564
					c0-0.186,0.056-0.33,0.169-0.43c0.112-0.101,0.28-0.152,0.501-0.152c0.087,0,0.173,0.012,0.256,0.037
					c0.103,0.023,0.192,0.035,0.267,0.035c0.186,0,0.333-0.027,0.44-0.084c0.106-0.055,0.202-0.151,0.288-0.288
					C235.998,474.759,236.096,474.557,236.207,474.293z"/>
			</g>
			<g>
				<path style="fill:#DF7F89;" d="M259.683,467.642h0.386v-0.487c0-0.509,0.062-0.911,0.192-1.211
					c0.128-0.299,0.347-0.516,0.654-0.653c0.307-0.135,0.727-0.204,1.26-0.204c0.95,0,1.42,0.229,1.42,0.697
					c0,0.149-0.049,0.278-0.15,0.384c-0.096,0.106-0.214,0.16-0.349,0.16c-0.062,0-0.174-0.012-0.329-0.037
					c-0.148-0.021-0.283-0.035-0.389-0.035c-0.292,0-0.479,0.088-0.566,0.259c-0.079,0.172-0.122,0.418-0.122,0.74v0.386h0.396
					c0.62,0,0.926,0.185,0.926,0.56c0,0.262-0.079,0.431-0.245,0.503c-0.163,0.071-0.39,0.107-0.68,0.107h-0.396v4.294
					c0,0.319-0.075,0.563-0.231,0.73c-0.151,0.17-0.346,0.254-0.589,0.254c-0.229,0-0.419-0.084-0.574-0.254
					c-0.153-0.167-0.228-0.411-0.228-0.73v-4.294h-0.446c-0.243,0-0.427-0.053-0.558-0.164c-0.131-0.107-0.197-0.25-0.197-0.424
					C258.869,467.834,259.14,467.642,259.683,467.642"/>
				<path style="fill:#DF7F89;" d="M264.989,471.75v1.355c0,0.327-0.083,0.574-0.234,0.737c-0.154,0.166-0.349,0.247-0.586,0.247
					c-0.239,0-0.43-0.082-0.579-0.25c-0.148-0.165-0.225-0.41-0.225-0.734v-4.514c0-0.729,0.262-1.093,0.788-1.093
					c0.271,0,0.464,0.084,0.583,0.255c0.119,0.171,0.184,0.421,0.198,0.755c0.192-0.334,0.39-0.584,0.593-0.755
					c0.208-0.171,0.477-0.255,0.819-0.255c0.343,0,0.67,0.084,0.991,0.255c0.322,0.171,0.482,0.398,0.482,0.678
					c0,0.197-0.069,0.362-0.204,0.488c-0.137,0.131-0.284,0.195-0.441,0.195c-0.062,0-0.207-0.039-0.433-0.112
					c-0.228-0.071-0.43-0.108-0.602-0.108c-0.237,0-0.433,0.064-0.582,0.186c-0.151,0.128-0.269,0.311-0.353,0.554
					c-0.081,0.247-0.137,0.541-0.17,0.878C265.003,470.851,264.989,471.264,264.989,471.75"/>
				<path style="fill:#DF7F89;" d="M272.44,471.193h-3.171c0.005,0.367,0.077,0.694,0.222,0.974
					c0.147,0.279,0.337,0.491,0.578,0.635c0.24,0.142,0.502,0.212,0.793,0.212c0.194,0,0.371-0.021,0.531-0.07
					c0.159-0.043,0.316-0.116,0.466-0.213c0.151-0.095,0.288-0.199,0.415-0.313c0.126-0.109,0.292-0.26,0.494-0.449
					c0.084-0.071,0.203-0.109,0.355-0.109c0.168,0,0.301,0.046,0.406,0.139c0.104,0.092,0.152,0.219,0.152,0.386
					c0,0.147-0.055,0.317-0.167,0.512c-0.117,0.198-0.289,0.385-0.522,0.566c-0.234,0.178-0.524,0.329-0.873,0.446
					c-0.35,0.119-0.754,0.179-1.207,0.179c-1.044,0-1.852-0.296-2.429-0.889c-0.578-0.595-0.87-1.401-0.87-2.418
					c0-0.479,0.073-0.924,0.217-1.334c0.14-0.411,0.349-0.76,0.624-1.055c0.272-0.294,0.606-0.518,1.008-0.674
					c0.399-0.156,0.842-0.234,1.33-0.234c0.632,0,1.175,0.134,1.629,0.404c0.452,0.264,0.796,0.61,1.018,1.034
					c0.226,0.426,0.339,0.855,0.339,1.296c0,0.405-0.118,0.669-0.351,0.791C273.191,471.132,272.863,471.193,272.44,471.193
					 M269.268,470.271h2.938c-0.039-0.553-0.186-0.969-0.446-1.242c-0.261-0.276-0.599-0.413-1.025-0.413
					c-0.403,0-0.735,0.137-0.995,0.418C269.481,469.314,269.323,469.725,269.268,470.271"/>
				<path style="fill:#DF7F89;" d="M279.182,471.193h-3.171c0.004,0.367,0.078,0.694,0.221,0.974
					c0.145,0.279,0.337,0.491,0.576,0.635c0.239,0.142,0.504,0.212,0.795,0.212c0.192,0,0.37-0.021,0.528-0.07
					c0.162-0.043,0.316-0.116,0.469-0.213c0.151-0.095,0.287-0.199,0.415-0.313c0.125-0.109,0.29-0.26,0.493-0.449
					c0.084-0.071,0.204-0.109,0.355-0.109c0.168,0,0.302,0.046,0.407,0.139c0.103,0.092,0.15,0.219,0.15,0.386
					c0,0.147-0.054,0.317-0.171,0.512c-0.11,0.198-0.284,0.385-0.519,0.566c-0.231,0.178-0.525,0.329-0.872,0.446
					c-0.349,0.119-0.755,0.179-1.209,0.179c-1.042,0-1.849-0.296-2.429-0.889c-0.577-0.595-0.868-1.401-0.868-2.418
					c0-0.479,0.073-0.924,0.217-1.334c0.142-0.411,0.349-0.76,0.623-1.055c0.272-0.294,0.608-0.518,1.009-0.674
					c0.398-0.156,0.844-0.234,1.331-0.234c0.63,0,1.174,0.134,1.633,0.404c0.45,0.264,0.791,0.61,1.013,1.034
					c0.225,0.426,0.341,0.855,0.341,1.296c0,0.405-0.12,0.669-0.351,0.791C279.932,471.132,279.604,471.193,279.182,471.193
					 M276.011,470.271h2.938c-0.04-0.553-0.19-0.969-0.447-1.242c-0.263-0.276-0.601-0.413-1.027-0.413
					c-0.403,0-0.735,0.137-0.996,0.418C276.222,469.314,276.063,469.725,276.011,470.271"/>
				<path style="fill:#DF7F89;" d="M282.732,468.41v0.194c0.304-0.375,0.621-0.651,0.953-0.828c0.324-0.178,0.699-0.267,1.114-0.267
					c0.497,0,0.96,0.13,1.379,0.386c0.419,0.259,0.749,0.635,0.993,1.129c0.244,0.497,0.366,1.081,0.366,1.758
					c0,0.497-0.07,0.957-0.21,1.376c-0.14,0.418-0.336,0.767-0.58,1.05c-0.246,0.281-0.535,0.501-0.868,0.654
					c-0.339,0.151-0.695,0.227-1.08,0.227c-0.461,0-0.853-0.093-1.166-0.28c-0.314-0.182-0.614-0.458-0.901-0.816v2.433
					c0,0.71-0.26,1.069-0.778,1.069c-0.306,0-0.505-0.092-0.607-0.275c-0.095-0.187-0.146-0.452-0.146-0.807v-6.996
					c0-0.309,0.067-0.537,0.2-0.692c0.134-0.15,0.32-0.228,0.553-0.228c0.231,0,0.416,0.078,0.56,0.234
					C282.661,467.891,282.732,468.113,282.732,468.41 M285.909,470.765c0-0.428-0.067-0.796-0.197-1.102
					c-0.131-0.308-0.312-0.542-0.541-0.705c-0.229-0.164-0.489-0.248-0.77-0.248c-0.446,0-0.824,0.178-1.13,0.527
					c-0.308,0.354-0.462,0.872-0.462,1.558c0,0.641,0.153,1.146,0.46,1.504c0.305,0.358,0.679,0.536,1.133,0.536
					c0.268,0,0.519-0.079,0.748-0.233c0.232-0.158,0.416-0.392,0.552-0.704C285.839,471.586,285.909,471.207,285.909,470.765"/>
				<path style="fill:#DF7F89;" d="M289.169,466.744c-0.226,0-0.418-0.071-0.577-0.209c-0.162-0.139-0.242-0.333-0.242-0.585
					c0-0.23,0.082-0.419,0.248-0.569c0.164-0.146,0.354-0.222,0.571-0.222c0.212,0,0.397,0.067,0.559,0.2
					c0.162,0.137,0.244,0.334,0.244,0.591c0,0.25-0.079,0.444-0.236,0.585C289.577,466.672,289.389,466.744,289.169,466.744
					 M289.972,468.418v4.689c0,0.322-0.077,0.568-0.231,0.732c-0.156,0.168-0.35,0.25-0.588,0.25c-0.238,0-0.428-0.084-0.58-0.254
					c-0.146-0.173-0.222-0.416-0.222-0.729v-4.642c0-0.319,0.076-0.559,0.222-0.721c0.152-0.165,0.342-0.245,0.58-0.245
					c0.238,0,0.432,0.079,0.588,0.245C289.894,467.905,289.972,468.132,289.972,468.418"/>
				<path style="fill:#DF7F89;" d="M295.196,473.349l-1.428-2.354l-0.88,0.83v1.291c0,0.312-0.083,0.551-0.248,0.718
					c-0.16,0.17-0.354,0.254-0.566,0.254c-0.249,0-0.447-0.082-0.588-0.25c-0.142-0.165-0.215-0.41-0.215-0.734v-6.915
					c0-0.358,0.071-0.632,0.207-0.821c0.139-0.191,0.341-0.283,0.596-0.283c0.25,0,0.445,0.086,0.593,0.257
					c0.146,0.169,0.221,0.421,0.221,0.751v3.933l1.822-1.914c0.227-0.235,0.396-0.4,0.517-0.486c0.118-0.087,0.262-0.13,0.431-0.13
					c0.204,0,0.371,0.065,0.51,0.193c0.132,0.129,0.2,0.291,0.2,0.483c0,0.237-0.221,0.556-0.659,0.951l-0.861,0.789l1.662,2.614
					c0.121,0.196,0.212,0.34,0.265,0.441c0.052,0.1,0.081,0.2,0.081,0.289c0,0.258-0.071,0.459-0.213,0.61
					c-0.14,0.148-0.327,0.221-0.554,0.221c-0.198,0-0.352-0.051-0.458-0.16C295.526,473.821,295.377,473.627,295.196,473.349"/>
				<path style="fill:#DF7F89;" d="M298.718,474.089c-0.245,0-0.455-0.079-0.634-0.238c-0.178-0.156-0.268-0.378-0.268-0.665
					c0-0.241,0.086-0.449,0.256-0.622c0.172-0.174,0.38-0.262,0.63-0.262c0.248,0,0.46,0.087,0.639,0.258
					c0.174,0.172,0.264,0.383,0.264,0.626c0,0.283-0.089,0.505-0.264,0.662C299.163,474.01,298.955,474.089,298.718,474.089"/>
				<path style="fill:#DF7F89;" d="M306.78,472.083c0,0.2-0.06,0.417-0.182,0.646c-0.12,0.231-0.305,0.449-0.553,0.656
					c-0.247,0.207-0.557,0.377-0.935,0.502c-0.375,0.126-0.8,0.192-1.269,0.192c-1.004,0-1.786-0.294-2.349-0.876
					c-0.56-0.585-0.841-1.368-0.841-2.35c0-0.667,0.128-1.254,0.387-1.765c0.254-0.509,0.628-0.904,1.113-1.184
					c0.487-0.28,1.072-0.419,1.746-0.419c0.421,0,0.805,0.061,1.158,0.184c0.35,0.122,0.645,0.282,0.891,0.474
					c0.242,0.197,0.428,0.402,0.556,0.62c0.129,0.22,0.192,0.426,0.192,0.617c0,0.192-0.071,0.357-0.214,0.492
					c-0.147,0.134-0.322,0.203-0.524,0.203c-0.137,0-0.249-0.035-0.338-0.104c-0.09-0.07-0.19-0.181-0.299-0.339
					c-0.198-0.299-0.404-0.526-0.622-0.674c-0.214-0.152-0.488-0.226-0.821-0.226c-0.476,0-0.865,0.186-1.159,0.561
					c-0.292,0.372-0.44,0.887-0.44,1.534c0,0.305,0.039,0.587,0.114,0.842c0.073,0.254,0.182,0.472,0.325,0.652
					c0.144,0.179,0.315,0.315,0.516,0.409c0.203,0.096,0.425,0.141,0.665,0.141c0.326,0,0.604-0.075,0.836-0.225
					c0.235-0.151,0.439-0.38,0.616-0.689c0.099-0.182,0.204-0.323,0.318-0.427c0.114-0.102,0.256-0.156,0.422-0.156
					c0.198,0,0.363,0.077,0.491,0.227C306.714,471.752,306.78,471.914,306.78,472.083"/>
				<path style="fill:#DF7F89;" d="M313.774,470.795c0,0.481-0.076,0.928-0.222,1.337c-0.154,0.408-0.37,0.758-0.656,1.049
					c-0.284,0.293-0.626,0.518-1.02,0.675c-0.4,0.154-0.844,0.234-1.337,0.234c-0.491,0-0.933-0.08-1.326-0.239
					c-0.389-0.156-0.732-0.384-1.016-0.676c-0.288-0.298-0.505-0.646-0.657-1.048c-0.143-0.402-0.219-0.846-0.219-1.332
					c0-0.491,0.077-0.941,0.224-1.349c0.151-0.409,0.368-0.757,0.649-1.046c0.282-0.289,0.621-0.511,1.019-0.669
					c0.402-0.156,0.844-0.234,1.326-0.234c0.49,0,0.936,0.078,1.337,0.239c0.398,0.157,0.739,0.384,1.027,0.674
					c0.286,0.297,0.502,0.643,0.65,1.045C313.699,469.863,313.774,470.306,313.774,470.795 M312.147,470.795
					c0-0.662-0.146-1.176-0.436-1.543c-0.289-0.372-0.681-0.555-1.171-0.555c-0.317,0-0.597,0.082-0.839,0.246
					c-0.242,0.164-0.425,0.406-0.556,0.728c-0.131,0.321-0.197,0.696-0.197,1.124c0,0.424,0.064,0.792,0.194,1.108
					c0.13,0.319,0.314,0.561,0.553,0.729c0.241,0.167,0.522,0.253,0.845,0.253c0.49,0,0.882-0.185,1.171-0.557
					C312,471.958,312.147,471.446,312.147,470.795"/>
				<path style="fill:#DF7F89;" d="M319.956,470.914v2.154c0,0.342-0.075,0.594-0.231,0.767c-0.156,0.17-0.357,0.255-0.611,0.255
					c-0.245,0-0.446-0.085-0.595-0.255c-0.154-0.173-0.232-0.425-0.232-0.767v-2.582c0-0.408-0.013-0.726-0.04-0.953
					c-0.029-0.221-0.105-0.41-0.226-0.552c-0.123-0.147-0.318-0.22-0.582-0.22c-0.532,0-0.879,0.181-1.048,0.551
					c-0.167,0.36-0.254,0.883-0.254,1.567v2.189c0,0.336-0.076,0.591-0.226,0.765c-0.156,0.171-0.355,0.258-0.603,0.258
					c-0.247,0-0.448-0.087-0.604-0.258c-0.157-0.173-0.235-0.428-0.235-0.765v-4.637c0-0.306,0.07-0.538,0.209-0.695
					c0.143-0.16,0.329-0.239,0.556-0.239c0.223,0,0.407,0.077,0.557,0.222c0.148,0.149,0.222,0.354,0.222,0.615v0.153
					c0.283-0.334,0.584-0.582,0.903-0.738c0.323-0.162,0.676-0.241,1.07-0.241c0.407,0,0.757,0.082,1.049,0.244
					c0.293,0.163,0.533,0.409,0.725,0.735c0.275-0.33,0.568-0.577,0.881-0.738c0.313-0.161,0.658-0.241,1.039-0.241
					c0.441,0,0.826,0.089,1.146,0.262c0.319,0.174,0.558,0.425,0.717,0.747c0.138,0.295,0.206,0.756,0.206,1.386v3.164
					c0,0.342-0.076,0.594-0.229,0.767c-0.154,0.17-0.359,0.255-0.612,0.255c-0.247,0-0.446-0.087-0.603-0.258
					c-0.156-0.173-0.235-0.428-0.235-0.765v-2.726c0-0.349-0.015-0.627-0.043-0.836c-0.029-0.211-0.11-0.388-0.239-0.529
					c-0.132-0.142-0.331-0.215-0.596-0.215c-0.214,0-0.416,0.067-0.609,0.192c-0.192,0.124-0.342,0.298-0.45,0.508
					C320.018,469.736,319.956,470.22,319.956,470.914"/>
			</g>
			<g>
				<path style="fill:#DF7F89;" d="M244.516,470.403c-0.001-0.003-0.001-0.006-0.001-0.011
					C244.515,470.397,244.515,470.4,244.516,470.403z"/>
				<path style="fill:#DF7F89;" d="M244.598,470.921c0.001,0,0.001,0,0.001,0c-0.031-0.148-0.055-0.294-0.074-0.439
					C244.544,470.628,244.568,470.775,244.598,470.921z"/>
				<path style="fill:#DF7F89;" d="M245.134,472.425c-0.004-0.006-0.007-0.013-0.011-0.021
					C245.127,472.411,245.13,472.419,245.134,472.425z"/>
				<path style="fill:#DF7F89;" d="M245.083,472.325c-0.014-0.027-0.027-0.056-0.041-0.084
					C245.055,472.27,245.069,472.297,245.083,472.325z"/>
				<path style="fill:#DF7F89;" d="M244.748,471.5c0.079,0.25,0.175,0.493,0.286,0.724c-0.113-0.236-0.206-0.479-0.283-0.724
					C244.75,471.5,244.749,471.5,244.748,471.5z"/>
				<path style="fill:#DF7F89;" d="M250.789,464.192c0.313,0,0.544,0.025,0.809,0.069l0.075-0.477c0,0-0.732-0.225-1.694-0.147
					l-0.076-0.259c0.299-0.063,0.524-0.329,0.524-0.646c0-0.364-0.296-0.659-0.661-0.659c-0.364,0-0.66,0.295-0.66,0.659
					c0,0.317,0.224,0.583,0.522,0.646l0.084,0.289c-1.021,0.14-1.834,0.539-1.834,0.539l0.144,0.441
					c0.618-0.206,1.154-0.331,1.64-0.383C250.139,464.214,250.497,464.192,250.789,464.192z"/>
				<path style="fill:#DF7F89;" d="M245.122,466.604l0.004-0.005c0.024-0.031,0.047-0.06,0.071-0.089l-0.196-0.141l-0.305-0.223
					c-0.017,0.024-0.497,0.465-0.876,1.28c-0.016-0.026-0.035-0.051-0.056-0.074c-0.114-0.124-0.272-0.187-0.474-0.184
					c-0.003,0-0.006,0-0.009,0c-0.125,0-0.21-0.041-0.267-0.092c0.056-0.071,0.089-0.16,0.089-0.258c0-0.23-0.187-0.418-0.418-0.418
					c-0.23,0-0.418,0.188-0.418,0.418c0,0.231,0.187,0.418,0.418,0.418c0.036,0,0.071-0.006,0.104-0.013
					c0.103,0.114,0.266,0.214,0.505,0.209c0.123-0.001,0.213,0.031,0.273,0.097c0.069,0.076,0.093,0.185,0.1,0.267
					c-0.001,0.001-0.001,0.003-0.002,0.003c-0.272,0.743-0.194,1.669-0.194,1.669l0.661,0.026c0.013-0.337,0.062-0.926,0.232-1.394
					C244.693,467.194,245.105,466.628,245.122,466.604z"/>
				<path style="fill:#DF7F89;" d="M256.539,464.745c-0.23,0-0.418,0.187-0.418,0.418c0,0.036,0.005,0.07,0.015,0.103
					c-0.115,0.104-0.214,0.267-0.211,0.507c0.002,0.123-0.03,0.212-0.096,0.273c-0.053,0.047-0.12,0.072-0.185,0.088
					c-0.492-0.689-1.097-1.11-1.097-1.11l-0.474,0.508c0.358,0.326,0.725,0.734,1.08,1.244c0.246,0.352,0.499,0.806,0.71,1.259
					l0.64-0.304c0,0-0.292-0.722-0.704-1.37c0.072-0.025,0.144-0.064,0.207-0.12c0.125-0.113,0.187-0.273,0.183-0.474
					c-0.001-0.13,0.042-0.218,0.093-0.276c0.071,0.054,0.16,0.089,0.257,0.089c0.232,0,0.419-0.187,0.419-0.418
					C256.958,464.931,256.771,464.745,256.539,464.745z"/>
				<path style="fill:#DF7F89;" d="M254.878,470.496c-0.881,0.429-2.33,0.996-4.238,1.262c-0.749,0.104-1.475,0.142-2.143,0.142
					c-0.869,0-1.637-0.065-2.227-0.139c-0.673-0.085-1.199-0.188-1.52-0.261c0.077,0.245,0.171,0.488,0.283,0.724
					c0.002,0.006,0.005,0.013,0.008,0.017c0.013,0.027,0.027,0.056,0.041,0.084c0.013,0.027,0.027,0.054,0.041,0.079
					c0.004,0.007,0.007,0.015,0.011,0.021c0.189,0.357,0.417,0.684,0.675,0.968c0.9,0.984,1.817,1.14,1.826,1.141l0.014,0.002
					l0.013,0.005c0.008,0.003,0.821,0.266,2.057,0.266c1.216,0,2.409-0.245,3.546-0.729c0.842-0.431,1.639-1.085,2.034-1.669
					c0.305-0.452,0.525-0.933,0.656-1.434c0.07-0.266,0.124-0.692,0.092-1.141C255.8,470,255.408,470.238,254.878,470.496z"/>
				<path style="fill:#DF7F89;" d="M245.405,466.813c-0.026,0.037-0.408,0.578-0.709,1.408c-0.226,0.622-0.216,1.527-0.216,1.538
					v0.002c0,0.212,0.012,0.423,0.035,0.632c0,0.005,0,0.008,0.001,0.011c0.002,0.027,0.007,0.052,0.009,0.079
					c0.019,0.145,0.043,0.291,0.074,0.439c0.438,0.111,3.049,0.72,5.968,0.314c1.829-0.254,3.218-0.795,4.062-1.204
					c0.701-0.34,1.151-0.648,1.325-0.774c-0.173-0.643-0.651-1.65-1.09-2.279c-1.253-1.791-2.604-2.25-3.298-2.364
					c-0.265-0.043-0.477-0.068-0.777-0.068c-0.28,0-0.626,0.023-1.089,0.071c-0.464,0.048-0.982,0.17-1.583,0.372
					c-0.842,0.282-1.605,0.724-2.204,1.28l-0.021,0.019C245.804,466.369,245.618,466.541,245.405,466.813z M253.073,466.396
					c0.601,0,1.09,0.488,1.09,1.089c0,0.601-0.489,1.09-1.09,1.09c-0.601,0-1.089-0.489-1.089-1.09
					C251.984,466.884,252.472,466.396,253.073,466.396z M247.922,466.352c0.973,0,1.76,0.789,1.76,1.761
					c0,0.972-0.788,1.759-1.76,1.759c-0.972,0-1.76-0.787-1.76-1.759C246.162,467.141,246.951,466.352,247.922,466.352z"/>
			</g>
		</g>
	</g>
</g>
</svg>
